/* XPM */
static char *dummy[]={
"100 100 12 1",
". c #555c61",
"h c #575d62",
"i c #585d62",
"j c #5b6065",
"e c #5d656c",
"# c #76838e",
"f c #818992",
"d c #848b94",
"a c #8d97a1",
"g c #929aa4",
"b c #959ea8",
"c c #979fa9",
"....................................................................................................",
".##################################################################################################.",
".##################################################################################################.",
".##################################################################################################.",
".##################################################################################################.",
".#####abbbbbbbbbbbbbbbbbbbbbbbbbbbbbbbbbbbbbbbbbbbbbbbbbbbbbbbbbbbbbbbbbbbbbbbbbbbbbbbbbbbbbbba####.",
".#####bccccccccccccccccccccccccccccccccccccccccccccccccccccccccccccccccccccccccccccccccccccccbb####.",
".#####bcdddddddddddddddddddddddddddddddddddddddddddddddddddddddddddddddddddddddddddddddddddddbb####.",
".#####bcd##################################################################################ddbb####.",
".#####bcd#e...............................................................................eddbb####.",
".#####bcd#.................................................................................ddbb####.",
".#####bcd#..fdddddddddddddddddddddddddddddddddddddddddddddddddddddddddddddddddddddddddddf..ddbb####.",
".#####bcd#..dgcccccccccccccccccccccccccccccccccccccccccccccccccccccccccccccccccccccccccgd..ddbb####.",
".#####bcd#..dcbbbbbbbbbbbbbbbbbbbbbbbbbbbbbbbbbbbbbbbbbbbbbbbbbbbbbbbbbbbbbbbbbbbbbbbbbcd..ddbb####.",
".#####bcd#..dcb#######################################################################bcd..ddbb####.",
".#####bcd#..dcb#######################################################################bcd..ddbb####.",
".#####bcd#..dcb#######################################################################bcd..ddbb####.",
".#####bcd#..dcb#######################################################################bcd..ddbb####.",
".#####bcd#..dcb#######################################################################bcd..ddbb####.",
".#####bcd#..dcb#######################################################################bcd..ddbb####.",
".#####bcd#..dcb#######################################################################bcd..ddbb####.",
".#####bcd#..dcb#######################################################################bcd..ddbb####.",
".#####bcd#..dcb#######################################################################bcd..ddbb####.",
".#####bcd#..dcb#######################################################################bcd..ddbb####.",
".#####bcd#..dcb#######################################################################bcd..ddbb####.",
".#####bcd#..dcb#######################################################################bcd..ddbb####.",
".#####bcd#..dcb#######################################################################bcd..ddbb####.",
".#####bcd#..dcb#######################################################################bcd..ddbb####.",
".#####bcd#..dcb#######################################################################bcd..ddbb####.",
".#####bcd#..dcb#######################################################################bcd..ddbb####.",
".#####bcd#..dcb#######################################################################bcd..ddbb####.",
".#####bcd#..dcb#######################################################################bcd..ddbb####.",
".#####bcd#..dcb#######################################################################bcd..ddbb####.",
".#####bcd#..dcb#######################################################################bcd..ddbb####.",
".#####bcd#..dcb#######################################################################bcd..ddbb####.",
".#####bcd#..dcb#######################################################################bcd..ddbb####.",
".#####bcd#..dcb#######################################################################bcd..ddbb####.",
".#####bcd#..dcb#######################################################################bcd..ddbb####.",
".#####bcd#..dcb#######################################################################bcd..ddbb####.",
".#####bcd#..dcb#######################################################################bcd..ddbb####.",
".#####bcd#..dcb#######################################################################bcd..ddbb####.",
".#####bcd#..dcb#######################################################################bcd..ddbb####.",
".#####bcd#..dcb#######################################################################bcd..ddbb####.",
".#####bcd#..dcb#######################################################################bcd..ddbb####.",
".#####bcd#..dcb#e...........................e#########################################bcd..ddbb####.",
".#####bcd#..dcb#hiiiiiiiiiiiiiiiiiiiiiiiiih..#########################################bcd..ddbb####.",
".#####bcd#..dcb#iiddddddddddddddddddddddddd..#########################################bcd..ddbb####.",
".#####bcd#..dcb#ii#######################dd..#########################################bcd..ddbb####.",
".#####bcd#..dcb#ii#######################dd..#########################################bcd..ddbb####.",
".#####bcd#..dcb#ijcccccccccccccccccccccccgd..#########################################bcd..ddbb####.",
".#####bcd#..dcb#hjcccccccccccccccccccccccgf..#########################################bcd..ddbb####.",
".#####bcd#..dcb#..#########################..#########################################bcd..ddbb####.",
".#####bcd#..dcb#..#########################..#########################################bcd..ddbb####.",
".#####bcd#..dcb#.............................#########################################bcd..ddbb####.",
".#####bcd#..dcb#e...........................e#########################################bcd..ddbb####.",
".#####bcd#..dcb#######################################################################bcd..ddbb####.",
".#####bcd#..dcb#######################################################################bcd..ddbb####.",
".#####bcd#..dcb#######################################################################bcd..ddbb####.",
".#####bcd#..dcb#######################################################################bcd..ddbb####.",
".#####bcd#..dcb#######################################################################bcd..ddbb####.",
".#####bcd#..dcb#######################################################################bcd..ddbb####.",
".#####bcd#..dcb#######################################################################bcd..ddbb####.",
".#####bcd#..dcb#######################################################################bcd..ddbb####.",
".#####bcd#..dcb#######################################################################bcd..ddbb####.",
".#####bcd#..dcb#######################################################################bcd..ddbb####.",
".#####bcd#..dcb#######################################################################bcd..ddbb####.",
".#####bcd#..dcb#######################################################################bcd..ddbb####.",
".#####bcd#..dcb#######################################################################bcd..ddbb####.",
".#####bcd#..dcb#######################################################################bcd..ddbb####.",
".#####bcd#..dcb#######################################################################bcd..ddbb####.",
".#####bcd#..dcb#######################################################################bcd..ddbb####.",
".#####bcd#..dcb#######################################################################bcd..ddbb####.",
".#####bcd#..dcb#######################################################################bcd..ddbb####.",
".#####bcd#..dcb#######################################################################bcd..ddbb####.",
".#####bcd#..dcb#######################################################################bcd..ddbb####.",
".#####bcd#..dcb#######################################################################bcd..ddbb####.",
".#####bcd#..dcb#######################################################################bcd..ddbb####.",
".#####bcd#..dcb#######################################################################bcd..ddbb####.",
".#####bcd#..dcb#######################################################################bcd..ddbb####.",
".#####bcd#..dcb#######################################################################bcd..ddbb####.",
".#####bcd#..dcb#######################################################################bcd..ddbb####.",
".#####bcd#..dcb#######################################################################bcd..ddbb####.",
".#####bcd#..dcb#######################################################################bcd..ddbb####.",
".#####bcd#..dcb#######################################################################bcd..ddbb####.",
".#####bcd#..dcb#######################################################################bcd..ddbb####.",
".#####bcd#..dcb#######################################################################bcd..ddbb####.",
".#####bcd#..dcb#######################################################################bcd..ddbb####.",
".#####bcd#..dcccccccccccccccccccccccccccccccccccccccccccccccccccccccccccccccccccccccccccd..ddbb####.",
".#####bcd#..fgcccccccccccccccccccccccccccccccccccccccccccccccccccccccccccccccccccccccccgf..ddbb####.",
".#####bcd#..#############################################################################..ddbb####.",
".#####bcd#.................................................................................ddbb####.",
".#####bcd#e...............................................................................eddbb####.",
".#####bcdddddddddddddddddddddddddddddddddddddddddddddddddddddddddddddddddddddddddddddddddddddbb####.",
".#####bcddddddddddddddddddddddddddddddddddddddddddddddddddddddddddddddddddddddddddddddddddddfbb####.",
".#####bbbbbbbbbbbbbbbbbbbbbbbbbbbbbbbbbbbbbbbbbbbbbbbbbbbbbbbbbbbbbbbbbbbbbbbbbbbbbbbbbbbbbbbbb####.",
".#####abbbbbbbbbbbbbbbbbbbbbbbbbbbbbbbbbbbbbbbbbbbbbbbbbbbbbbbbbbbbbbbbbbbbbbbbbbbbbbbbbbbbbbba####.",
".##################################################################################################.",
".##################################################################################################.",
".##################################################################################################.",
"...................................................................................................."};
